<?xml version="1.0" standalone="no"?>
<!DOCTYPE svg PUBLIC "-//W3C//DTD SVG 20010904//EN"
 "http://www.w3.org/TR/2001/REC-SVG-20010904/DTD/svg10.dtd">
<svg version="1.0" xmlns="http://www.w3.org/2000/svg"
 width="777.000000pt" height="225.000000pt" viewBox="0 0 777.000000 225.000000"
 preserveAspectRatio="xMidYMid meet">
<metadata>
Created by potrace 1.16, written by Peter Selinger 2001-2019
</metadata>
<g transform="translate(0.000000,225.000000) scale(0.100000,-0.100000)"
fill="#000000" stroke="none">
<path d="M700 1840 c-19 -19 -20 -32 -20 -238 0 -181 3 -221 16 -240 15 -22
19 -22 249 -22 230 0 234 0 249 22 9 12 16 35 16 50 l0 28 308 -2 307 -3 10
-31 c21 -66 14 -64 270 -64 290 0 270 -12 270 169 0 69 -4 143 -8 165 -12 55
-85 130 -156 158 l-56 23 -717 3 c-710 3 -717 3 -738 -18z m1439 -4 c77 -19
102 -30 139 -61 57 -48 63 -70 64 -236 1 -122 -2 -153 -14 -166 -13 -12 -50
-15 -229 -14 -137 1 -217 6 -226 13 -7 6 -13 20 -13 33 0 50 -11 52 -352 54
-311 2 -316 2 -323 -19 -3 -11 -4 -28 0 -39 12 -37 -13 -42 -241 -42 -163 1
-221 4 -231 13 -8 9 -14 76 -19 226 -7 196 -6 214 11 232 17 19 32 20 698 19
532 0 693 -3 736 -13z"/>
<path d="M1135 1441 c-6 -20 -12 -21 -188 -23 -100 0 -190 -1 -199 0 -10 1
-18 -5 -18 -12 0 -8 8 -17 18 -20 22 -7 348 -6 385 0 28 6 36 34 18 63 -7 11
-10 9 -16 -8z"/>
<path d="M2295 1440 c-6 -18 -19 -19 -193 -22 -103 -2 -193 1 -199 6 -9 6 -13
2 -13 -12 0 -30 33 -34 250 -30 l185 3 3 31 c4 37 -23 56 -33 24z"/>
<path d="M2441 1843 c-20 -17 -21 -26 -22 -241 -1 -200 1 -225 16 -243 17 -18
33 -19 250 -19 181 0 235 3 244 13 7 9 11 95 13 245 2 220 1 232 -17 246 -16
13 -61 15 -241 16 -197 0 -224 -2 -243 -17z m474 -13 c15 -17 17 -43 14 -232
-2 -117 -8 -219 -12 -225 -12 -19 -450 -18 -465 0 -16 19 -18 443 -2 462 11
13 49 15 231 14 198 -1 219 -2 234 -19z"/>
<path d="M2876 1443 c-7 -21 -12 -22 -196 -25 -103 -2 -192 -7 -196 -11 -20
-20 34 -27 212 -27 209 0 210 0 195 57 -7 27 -8 27 -15 6z"/>
<path d="M3582 1842 c-17 -17 -19 -38 -18 -240 1 -206 2 -222 22 -249 32 -44
35 -61 14 -76 -33 -23 -40 -61 -33 -171 3 -56 3 -123 -1 -149 -11 -74 -22 -77
-293 -77 -191 0 -232 -3 -251 -16 -21 -15 -22 -21 -22 -189 l0 -174 27 -21
c27 -21 32 -21 423 -18 392 4 396 4 460 28 82 31 163 106 179 165 7 24 11 146
11 310 0 229 -2 274 -16 293 -8 12 -21 22 -29 22 -26 0 -24 16 11 59 l34 44 0
212 c0 200 -1 214 -21 239 l-20 26 -230 0 c-209 0 -231 -2 -247 -18z m470 -3
c16 -9 18 -28 18 -232 0 -160 -3 -226 -12 -235 -17 -17 -442 -17 -455 1 -6 6
-11 86 -12 177 -1 91 -4 188 -7 216 -9 82 -2 85 246 84 112 -1 212 -6 222 -11z
m6 -591 c9 -9 11 -58 10 -173 l-2 -160 -3 130 c-2 72 -6 136 -8 144 -14 37
-23 -18 -29 -176 -5 -151 -4 -173 9 -173 8 0 15 7 15 15 0 8 5 15 10 15 6 0
10 -39 10 -98 0 -108 -13 -142 -55 -142 -13 0 -30 -8 -37 -17 -12 -17 -94 -43
-195 -64 -23 -4 -191 -10 -373 -12 -182 -2 -333 -7 -337 -11 -15 -15 14 -20
125 -22 64 -1 122 -3 127 -3 6 0 55 1 109 3 112 4 186 -2 186 -15 0 -5 -127
-9 -283 -9 l-283 0 -17 29 c-22 37 -23 79 -1 77 9 0 20 13 29 37 l13 37 -29 0
c-29 0 -29 1 -29 60 0 51 4 63 27 86 16 16 41 28 65 31 21 3 38 10 38 14 0 5
83 9 184 9 268 0 270 2 261 228 -4 103 -3 148 6 158 15 19 438 21 457 2z"/>
<path d="M4032 1448 l-12 -28 -205 0 c-169 0 -205 -2 -205 -14 0 -8 7 -17 16
-20 24 -9 397 -7 412 3 9 5 12 22 10 47 l-4 39 -12 -27z"/>
<path d="M4177 1842 c-15 -16 -17 -48 -17 -244 0 -258 0 -258 83 -258 26 0 47
-4 47 -10 0 -5 -7 -10 -15 -10 -9 0 -18 -6 -21 -14 -3 -8 -17 -17 -32 -21 -63
-16 -62 -10 -62 -329 0 -261 2 -295 19 -332 18 -41 71 -89 126 -116 85 -42
101 -43 810 -43 l680 0 74 24 c57 19 86 36 128 75 53 49 55 53 63 121 5 39 9
179 10 313 l0 243 -27 27 c-35 35 -36 56 -1 82 15 11 28 29 28 40 0 31 32 23
55 -13 11 -18 31 -33 43 -35 16 -3 22 -8 18 -19 -3 -8 -6 -19 -6 -24 0 -5 -6
-9 -14 -9 -8 0 -22 -10 -30 -22 -14 -19 -16 -74 -16 -395 0 -360 1 -374 20
-393 20 -20 33 -20 638 -20 543 0 620 2 640 16 21 15 22 21 22 188 0 133 -3
177 -14 192 -14 18 -33 19 -396 24 l-382 5 2 174 c1 171 1 173 -25 206 -31 42
-31 58 0 89 l25 25 0 220 0 220 -26 20 c-25 20 -39 21 -249 21 l-223 0 -23
-25 c-24 -25 -59 -34 -59 -15 0 5 -13 16 -30 25 -23 12 -71 15 -249 15 -216 0
-220 0 -235 -22 -23 -32 -23 -453 -1 -482 19 -25 19 -75 0 -100 -12 -15 -15
-53 -15 -167 0 -81 -3 -155 -6 -164 -17 -42 -45 -45 -431 -45 -317 0 -372 2
-391 16 -21 15 -22 21 -22 178 l0 162 -29 28 c-32 31 -31 44 6 89 23 28 23 33
23 247 l0 219 -26 20 c-25 20 -39 21 -249 21 -202 0 -223 -2 -238 -18z m477
-6 c17 -14 18 -29 14 -233 -2 -120 -7 -224 -11 -230 -6 -10 -63 -13 -230 -13
-122 0 -227 4 -233 8 -7 4 -13 85 -18 226 -6 186 -4 221 8 235 21 24 441 29
470 7z m1381 -6 c16 -18 17 -38 12 -235 -3 -118 -9 -219 -12 -225 -10 -16
-460 -13 -473 3 -16 20 -10 440 7 460 12 15 41 17 231 17 203 0 218 -1 235
-20z m580 0 c16 -17 17 -40 12 -230 -4 -143 -9 -216 -17 -226 -16 -19 -439
-21 -458 -2 -17 17 -17 449 0 466 9 9 71 12 229 12 200 -1 218 -3 234 -20z
m-1967 -582 c7 -7 11 -30 11 -53 -1 -22 -3 -32 -6 -22 -2 9 -10 17 -18 17 -9
0 -14 -36 -20 -146 -8 -155 -2 -180 33 -158 13 8 24 6 47 -8 26 -16 54 -18
233 -18 128 0 202 -4 202 -10 0 -5 9 -10 20 -10 11 0 20 5 20 10 0 6 61 10
163 10 172 0 227 11 227 47 0 10 6 14 20 10 19 -5 20 0 19 121 -1 103 -3 118
-10 78 -4 -28 -6 -53 -3 -57 2 -5 2 -20 -2 -34 -13 -51 -24 -2 -24 106 0 68 4
109 12 117 17 17 438 17 459 0 11 -10 13 -28 8 -78 -4 -50 -6 -55 -7 -22 -1
28 -7 42 -16 42 -14 0 -24 -121 -27 -330 -2 -83 -5 -97 -23 -112 -21 -17 -21
-18 12 -18 l32 0 0 54 c0 35 5 58 15 66 13 11 15 4 15 -53 0 -57 -3 -68 -22
-82 l-23 -15 23 -6 c25 -7 29 -36 9 -71 -21 -38 -92 -91 -130 -98 -20 -4 -37
-10 -37 -14 0 -3 -24 -12 -53 -19 -64 -15 -197 -16 -197 -2 0 6 3 10 8 10 73
3 143 11 165 19 16 6 40 11 55 11 26 1 62 20 62 34 0 9 -64 7 -76 -2 -27 -24
-93 -31 -198 -22 -60 5 -112 7 -116 5 -4 -3 -235 -6 -512 -7 -463 -2 -571 -6
-528 -21 17 -6 119 -19 135 -17 6 0 55 2 109 4 112 4 186 -2 186 -15 0 -13
-457 -11 -465 1 -3 6 -19 10 -35 10 -53 0 -120 43 -120 77 0 18 13 16 36 -5
27 -25 78 -44 106 -40 19 3 13 9 -38 35 -34 18 -64 29 -68 26 -12 -12 -38 21
-33 44 4 24 -10 29 -75 25 l-28 -2 0 294 c0 226 3 296 13 299 6 3 109 6 228 6
155 1 218 -2 227 -11z m1969 -43 c1 -27 -1 -42 -4 -32 -2 9 -10 17 -17 17 -9
0 -15 -31 -19 -112 -10 -159 -9 -238 3 -238 22 0 30 46 32 177 l2 138 6 -145
5 -145 110 -6 c61 -3 103 -6 95 -8 -8 -1 -1 -7 15 -12 34 -10 145 -1 145 12 0
5 90 9 201 9 160 0 203 -3 215 -14 19 -19 21 -335 2 -354 -14 -14 -518 -17
-518 -3 0 5 6 11 13 13 10 3 200 2 257 -1 37 -2 203 9 220 14 52 17 -2 21
-257 24 -153 1 -291 3 -308 3 -16 0 -169 0 -338 -1 l-308 -2 6 -30 c7 -32 1
-36 -21 -15 -19 20 -21 735 -2 754 9 9 71 12 238 10 l225 -3 2 -50z"/>
<path d="M4613 1436 c-7 -13 -39 -15 -206 -17 -155 -1 -197 -4 -197 -14 0 -20
37 -23 240 -22 l185 2 3 24 c5 30 -13 49 -25 27z"/>
<path d="M5994 1430 c-5 -5 -93 -10 -196 -12 -102 -2 -190 -6 -194 -10 -18
-18 18 -23 191 -26 186 -3 225 3 225 33 0 18 -14 27 -26 15z"/>
<path d="M6577 1448 l-7 -27 -191 -3 c-105 -2 -193 1 -196 6 -3 5 -10 1 -16
-9 -7 -12 -5 -20 4 -26 8 -5 105 -9 217 -9 224 0 224 0 205 63 l-9 32 -7 -27z"/>
<path d="M4443 793 c4 -3 0 -11 -8 -17 -8 -6 -15 -24 -17 -40 -3 -25 1 -30 26
-37 49 -14 145 1 161 24 12 18 12 22 -8 37 -12 9 -31 20 -42 25 -24 10 -121
17 -112 8z"/>
<path d="M5723 793 c4 -3 0 -11 -8 -17 -8 -6 -15 -24 -17 -40 -3 -25 1 -30 26
-37 49 -14 145 1 161 24 12 18 12 22 -8 37 -12 9 -31 20 -42 25 -24 10 -121
17 -112 8z"/>
<path d="M2600 1283 c-155 -4 -180 -12 -180 -59 0 -36 -11 -54 -31 -54 -14 0
-19 7 -19 25 0 14 -10 35 -21 46 -19 19 -29 21 -88 15 -36 -3 -235 -7 -441 -8
l-375 -3 445 -5 445 -5 2 -45 c1 -25 -1 -38 -5 -28 -12 30 -29 5 -35 -54 -3
-31 -13 -68 -23 -83 -24 -37 -87 -70 -172 -90 -40 -10 -75 -22 -79 -28 -11
-18 22 -28 80 -23 48 3 55 2 41 -8 -15 -11 -13 -17 18 -62 49 -69 52 -82 23
-96 -35 -16 -21 -28 30 -28 36 0 47 -4 56 -22 7 -13 23 -36 35 -51 34 -40 31
-64 -8 -73 -18 -4 -107 -8 -198 -9 -219 -2 -240 -3 -240 -14 0 -7 143 -23 185
-20 6 0 68 1 138 3 99 1 130 5 138 16 7 13 9 13 9 0 0 -37 -19 -40 -256 -40
l-232 0 -27 32 c-27 31 -27 31 -6 43 19 10 20 13 6 30 -8 11 -15 32 -15 48 0
22 -5 27 -24 27 -56 0 -86 13 -101 43 -19 38 -19 47 0 47 8 0 29 6 47 14 18 8
53 20 78 26 l44 12 -28 15 c-20 10 -44 13 -75 9 -37 -4 -53 -1 -85 18 -21 13
-43 35 -50 48 l-12 23 -229 0 -230 0 -9 -58 c-6 -42 -5 -62 3 -70 19 -19 44
21 37 61 l-5 32 64 0 c81 0 96 -18 18 -22 l-58 -3 -3 -148 c-2 -141 -3 -147
-22 -137 -15 8 -20 6 -25 -10 -7 -22 11 -20 -313 -24 -50 -1 -92 -4 -92 -8 0
-19 32 -37 53 -29 12 5 65 7 117 6 148 -3 160 -4 160 -15 0 -15 -333 -13 -348
2 -8 8 -12 48 -12 115 0 96 1 103 20 103 13 0 20 7 20 20 0 11 -6 20 -14 20
-8 0 -17 7 -20 16 -3 9 -6 112 -6 231 0 172 3 217 14 229 12 11 73 14 343 15
180 1 341 4 357 8 17 3 -135 8 -336 9 l-366 4 -16 -23 c-14 -21 -16 -68 -16
-379 l0 -357 23 -21 c22 -21 31 -22 244 -22 200 0 221 2 236 18 14 16 17 44
17 190 0 165 1 171 21 177 12 4 90 4 174 0 l154 -7 44 -57 c24 -31 83 -111
131 -178 48 -68 96 -127 106 -133 11 -6 115 -10 252 -10 271 0 278 2 278 74 0
40 -10 57 -101 181 -55 75 -99 138 -97 139 2 1 25 12 53 25 69 32 120 74 139
116 20 42 51 62 60 39 3 -9 6 -131 6 -273 0 -256 0 -258 23 -279 22 -21 31
-22 239 -22 198 0 218 2 239 19 l24 19 1 364 c0 199 -3 373 -7 384 -4 12 -15
24 -25 28 -26 10 -147 13 -314 9z m318 -36 c8 -9 9 -44 3 -113 -8 -98 -8 -99
-10 -27 -1 61 -12 95 -26 81 -2 -2 -7 -82 -11 -178 l-7 -175 -31 -30 c-16 -16
-31 -39 -31 -49 -2 -26 30 -56 60 -56 25 0 25 0 26 103 0 112 12 168 21 107 8
-51 10 -387 3 -410 -5 -15 -15 -20 -41 -20 -38 0 -47 17 -11 22 13 2 22 10 22
21 0 17 -12 19 -196 17 -134 0 -205 3 -223 11 l-26 12 0 337 c0 248 3 339 12
348 18 18 451 17 466 -1z"/>
<path d="M1883 793 c4 -3 0 -11 -8 -17 -8 -6 -15 -24 -17 -40 -3 -25 1 -30 26
-37 49 -14 145 1 161 24 12 18 12 22 -8 37 -12 9 -31 20 -42 25 -24 10 -121
17 -112 8z"/>
</g>
</svg>
